<svg xmlns="http://www.w3.org/2000/svg" xmlns:xlink="http://www.w3.org/1999/xlink" width="101.25" height="110" viewBox="0 0 101.2498 110"><defs><path id="a" d="M0 0h101.25v110H0z"/></defs><clipPath id="b"><use xlink:href="#a" overflow="visible"/></clipPath><path clip-path="url(#b)" fill="#FFF" d="M50.635 53.48c6.08-.897 9.664-3.914 9.664-3.914-2.924 15.323-.233 23.954-.233 23.954-.614-13.252 2.637-24.758 2.637-24.758 4.387 5.894 14.292 5.187 14.292 5.187s-11.412-1.083-14.009-10.185c-5.044 7.875-12.351 9.715-12.351 9.715M78.95 39.865c.707-.027 1.308.004 1.965.016-1.464 3.915-4.96 8.928-4.96 8.928 5.8 1.747 9.375 5.794 10.601 8.153h-1.98c-1.227-2.359-4.801-6.406-10.602-8.153 0 0 3.512-5.029 4.976-8.944m-12.483 1.918c1.828-6.392 6.212-11.555 6.212-11.555-.65.308-1.354.716-2.621.796-1.336 1.757-4.435 6.231-5.749 11.42 0 0 .823-.283 2.158-.66M61.56 76.796c.51.498.95.915 1.286 1.252 0 0 7.548-14.198 15.848-21.086h-1.983c-6.806 5.648-13.105 16.216-15.15 19.834M44.148 52.137c1.261-2.795 3.513-6.819 6.807-9.238 0 0-4.082-7.767-4.437-13.568 0 0-.682.585-1.774 1.672.877 5.525 4.19 11.937 4.19 11.937-5.42 3.985-7.992 12.308-7.992 12.308.872-1.177 1.992-2.211 3.206-3.11m-9.378-4.743c.754 2.215 1.844 5.02 3.32 7.853 0 0-3.177-2.398-5.11-7.607 1.077-.149 1.548-.208 1.79-.246m13.398 12.544l-.245-2.03H46.01v2.03m7.265 16.757c-3.63-3.25-9.905-10.013-10.848-16.757h1.983c.94 6.744 7.214 13.507 10.845 16.757m-20.725 0c.306-6.227 1.507-11.994 3.584-16.757h-.261c-3.796 5.704-5.446 13.737-6.035 16.757m13.651 0c-2.594-5.212-4.761-12.068-5.188-16.757h-.283c.143 4.782.875 10.274 2.949 16.757"/><path clip-path="url(#b)" fill="#FFF" d="M78.95 39.865c-1.464 3.915-4.976 8.944-4.976 8.944 5.8 1.747 9.375 5.794 10.602 8.153h-7.865C68.41 63.85 60.866 78.048 60.866 78.048c-2.687-2.69-11.978-10.662-12.212-21.086H16.988c4.574-8.3 15.992-9.32 15.992-9.32 1.933 5.208 5.11 7.606 5.11 7.606-3.161-6.059-4.6-12.122-4.6-12.122 4.67-8.346 11.06-13.795 11.06-13.795.355 5.8 4.384 13.608 4.384 13.608-5.42 3.986-7.993 12.309-7.993 12.309 3.846-5.187 12.57-7.688 12.57-7.688-2.855-4.832-4.269-8.349-4.269-8.349 5.306-.118 12.969 2.594 12.969 2.594 1.79-6.673 4.972-10.774 4.972-10.774 1.84.093 2.728-.43 3.516-.804 0 0-4.692 5.518-6.39 12.217 0 0 7.975-2.703 14.64-2.579M50.636 53.48c6.08-.897 9.664-3.913 9.664-3.913-2.924 15.323-.233 23.954-.233 23.954-.614-13.252 2.637-24.758 2.637-24.758 4.387 5.894 14.292 5.187 14.292 5.187s-11.412-1.083-14.009-10.185c-5.044 7.875-12.351 9.715-12.351 9.715"/><path clip-path="url(#b)" fill="#FFF" d="M45.469 76.696c-2.594-5.212-4.761-12.068-5.188-16.757h-.283c.143 4.782.875 10.274 2.949 16.757H34.53c.304-6.227 1.507-11.994 3.583-16.757h-.261c-3.796 5.704-5.446 13.737-6.034 16.757h-6.555c.377-1.837 3.254-11.333 10.422-16.757h-3.63v-2.03H46.01v2.03h-3.584c.943 6.744 7.217 13.507 10.848 16.757M19.096 8.905c-.019-.072-.006-.137.034-.162.078-.05.15.016.193.04l3.067 2.414c.174.14.278.212.343.308.078.118-1.177.94-1.292 1.018-.159.103-1.414.925-1.476.825-.078-.118-.075-.286-.112-.43m7.385 2.298c.144.131.35.278.44.415.217.333-.054.731-.156.828-.63.582-.984.896-.828 1.13.053.078.22.165.414.037.766-.501 1.4-1.027 2.123-1.504.766-.501 1.482-.859 2.323-1.41.237-.156.367-.296.24-.492-.193-.296-.526.01-1.158.199-.306.087-.866.09-1.943-.744L18.23 5.664c-.072-.066-.206-.06-.324.016a.26.26 0 0 0-.119.245l2.438 14.616c.044.28.038.482-.264.875-.377.498-.91.79-.745 1.046.116.177.234.183.39.08.666-.435 1.38-1.014 2.124-1.503.57-.37 1.245-.704 1.774-1.05.137-.09.452-.295.296-.532-.103-.156-.545.022-1.255.265-.184.062-.697.174-.953-.215-.143-.218-.993-3.522-1.152-4.792-.025-.206.237-.492 1.582-1.345 1.62-1.034 1.697-1.084 2.176-.697l3.04 2.543zM38.66 9.248c.105.118.17.171.24.155.068-.018.093-.096.099-.243l1.348-6.946c.103-.483.283-.866.579-.94.725-.187 1.488-.337 2.214-.524.292-.074.442-.065.514.178.059.2-.246.327-.904.498-.523.134-.775.27-.55 1.05l2.167 7.45c.118.402.398.405.822.343.488-.078 1.154-.253 1.251.081.081.277-.224.218-.666.308-.692.143-.959.15-1.955.377-.8.18-1.495.345-1.994.473-.338.09-.423.084-.472-.093-.072-.246.27-.349.74-.52.446-.165.704-.156.565-.645l-1.76-6.053c-.06-.199-.168-.411-.212-.398-.046.012-.059.134-.109.386l-1.423 7.688c-.021.099-.071.258-.164.28-.09.021-.169-.078-.275-.194L33.37 6.31c-.252-.268-.417-.515-.51-.49-.113.028-.025.246.07.58l1.598 5.77c.125.423.54.482 1.006.373.514-.118.928-.206.987-.006.025.09.14.246-.177.345-.492.15-1.162.34-1.971.632-.984.355-1.423.582-1.878.698-.18.05-.292.003-.337-.15-.09-.311.353-.398.782-.585.508-.221.813-.473.664-1.152l-1.168-5.368c-.268-1.174-.349-1.703-.47-2.127-.13-.442-.464-.5-1.18-.364-.605.109-.713.066-.766-.112-.044-.156.065-.28.36-.358.34-.087.91-.14 2.52-.554.115-.028.246.009.39.162m16.995 5.513c-.006.61.275.8.882.853.607.053.794.15.79.383 0 .187-.118.233-.563.23-.492-.006-1.24-.109-2.011-.118-.773-.007-1.526.08-2.298.072-.212-.004-.28-.097-.278-.262.004-.209.237-.302.8-.343.56-.04.938-.224.947-.834l.081-7.632c.006-.657-.202-.8-.648-.853-.56-.05-.793-.146-.79-.358 0-.165.118-.255.33-.255.492.006 1.146.109 2.011.115.913.012 1.616-.075 2.108-.068.212 0 .327.096.327.258-.003.212-.237.302-.8.346-.61.037-.8.177-.806.834m6.442 3.469c-.035.233.108.395.595.464l1.762.249c.672.093 1.049.125 1.51-.143.41-.225.629-.928.816-.9.183.025.218.124.18.38-.03.23-.146.548-.283 1.354-.143.831-.203 1.413-.243 1.716-.025.161-.103.224-.268.199-.23-.031-.04-.548-.358-1.305-.156-.399-.822-.707-1.426-.79l-1.81-.26c-.438-.061-.621.057-.662.359l-.48 3.385c-.078.557.296.918 2.407 1.214 1.32.186 2.223.006 2.669-.474.585-.625.79-1.258 1.024-1.226.162.022.196.121.177.261-.028.187-.386 1.224-.585 1.784-.156.43-.218.704-.448.673-.536-.078-2.099-.392-4.372-.713-1.993-.283-3.584-.414-4.231-.504-.302-.044-.408-.128-.383-.315.05-.349.507-.237.977-.218.589.012.96-.1 1.065-.84l.985-6.96c.158-1.111-.023-1.348-.53-1.445-.508-.096-.726-.22-.7-.382.021-.162.105-.268.386-.23.647.092 1.61.323 3.58.6 2.018.287 3.375.383 4.443.536.558.077.589.177.542.5l-.24 1.695c-.03.23-.093.34-.208.324-.349-.05-.128-.776-.623-1.295-.51-.567-1.33-.968-2.952-1.196-1.74-.246-1.818-.022-1.877.395m15.814 11.748c.028.115.053.178.118.206.066.025.122-.05.178-.181l2.344-5.468c.305-.71.181-.837-.352-1.142-.685-.42-1.005-.56-.896-.819.065-.15.22-.159.414-.075.389.165.934.501 1.688.822.753.324 1.111.377 1.54.56.303.131.383.24.318.393-.102.237-.423.096-.853-.034-.501-.14-.947-.05-1.233.616l-3.135 7.32c-.25.58-.327.879-.374.988-.047.105-.103.183-.234.127-.127-.056-.199-.187-.273-.37L68.205 5.729c-.038-.093-.044-.196-.128-.233-.065-.028-.267.267-.46.719l-1.72 4.004c-.958 2.239-.769 2.447-.021 2.843.498.265.965.541.875.757-.084.192-.209.19-.446.09-.432-.184-.956-.51-1.815-.882-.947-.404-1.5-.541-1.868-.697-.17-.074-.311-.159-.23-.351.186-.433 1.276.289 1.64.036.275-.161.813-1.126 1.221-2.073l2.142-4.994c.396-.925.047-1.358-.573-1.697-.498-.265-.638-.352-.557-.545.056-.128.168-.209.423-.1.39.168 1.193.614 2.009.965.56.24.664.358.747.574m6.036 10.981c.254-.336.465-.383.615-.27.41.308-1.897 2.381.88 4.455 1.352 1.009 2.364.828 2.993-.016 1.498-2.008-3.2-5.11-.987-8.074 1.09-1.463 2.88-1.354 4.608-.065 1.24.925 1.738 2.055 1.588 2.295-.205.314-.648 1.065-.887 1.386-.153.205-.308.292-.458.18-.205-.152.013-.367.146-1.174.075-.647.072-1.585-1.148-2.494-.919-.688-1.791-.694-2.463.206-1.401 1.877 3.356 5.137 1.283 7.915-1.205 1.613-3.236 1.675-5.038.33-1.766-1.317-2.656-2.628-2.18-3.266M8.899 77.257c.23-.299 2.746-3.986 2.675-4.11-.085-.138-2.015 1.014-3.08 1.65L3.048 78.06c-.383.224-.174 1.027.044 1.581.342.886.52 1.19.262 1.346-.243.143-.412-.137-.58-.417-.395-.666-.81-1.538-1.255-2.28-.42-.703-.993-1.481-1.413-2.185-.109-.181-.18-.436.022-.56.302-.176.485.036.79.454.548.741 1.137 1.04 1.452.878l9.08-4.528c.214-.1.354-.18.918-.523.442-.26.373-.467.012-1.75-.2-.703-.38-1.002-.159-1.133.14-.087.275-.137.564.343.274.46.499.927.775 1.395.315.523.667 1.021.978 1.543.097.156.109.312.025.45l-6.284 9.16a.168.168 0 0 0-.015.2c.034.061.13.086.202.068l10.188-1.264c.302-.044.93-.175 1.112.13.146.237.765 1.37.908 1.607.328.548.704 1.084 1.029 1.626.058.099.002.33-.097.386-.424.255-.691-.38-.969-.704-.865-1.04-1.074-1.295-2.419-.492l-8.301 4.97c-.766.454-.79.821-.262 2.254.134.354.271.822.05.952-.26.156-.426-.125-.825-.79-.517-.866-.641-1.252-.918-1.713-.576-.966-1.234-1.887-1.691-2.647-.13-.224-.28-.516.043-.71.222-.13.56.35.745.567.747.835.86.934 1.441.586l7.277-4.353c.402-.243.485-.374.426-.473-.037-.063-.112-.1-.218-.088L5.231 83.354c-.125.018-.237-.075-.296-.175-.205-.342.614-1.35.785-1.563m22.664 5.66c.25-.012.623-.1.95.169.308.249.383.79.13 1.102a.894.894 0 0 1-.819.299l-4.551-.567-.64-.516m-3.7 4.446c-.15.18-.113.392.27.703l1.38 1.122c.526.429.834.647 1.366.66.467.018 1.018-.474 1.161-.356.147.119.125.225-.04.424-.146.18-.408.393-.944 1.01-.55.64-.902 1.114-1.092 1.344-.106.13-.202.137-.33.038-.18-.15.249-.493.364-1.302.074-.43-.34-1.034-.81-1.414l-1.416-1.158c-.346-.28-.564-.274-.754-.037l-2.157 2.652c-.355.436-.222.934 1.432 2.28 1.033.847 1.899 1.158 2.531.977.825-.236 1.33-.672 1.51-.523.128.106.106.206.016.312-.118.149-.962.847-1.423 1.233-.352.286-.548.486-.728.336-.42-.336-1.595-1.414-3.376-2.865-1.563-1.27-2.855-2.204-3.366-2.615-.236-.193-.28-.324-.165-.467.224-.274.558.063.95.317.498.318.875.412 1.348-.167l4.434-5.455c.71-.873.679-1.165.293-1.508-.383-.342-.508-.566-.402-.691.103-.13.23-.174.448 0 .508.418 1.215 1.109 2.756 2.367 1.582 1.282 2.693 2.067 3.53 2.752.437.355.412.454.207.71l-1.081 1.326c-.146.181-.255.243-.345.168-.275-.224.289-.728.133-1.426-.143-.753-.638-1.52-1.908-2.553-1.364-1.108-1.548-.959-1.812-.629l-1.98 2.435zm10.586 11.95c-.3.66.068 1.108.52 1.364.451.249.912.48.788.76-.088.192-.312.118-.44.062-.768-.35-1.479-.766-2.248-1.108-.77-.344-1.556-.593-2.326-.941-.17-.075-.261-.218-.193-.367.122-.281.573-.075 1.019.068.466.162.999.118 1.298-.548l2.618-5.86c.642-1.426.539-1.6-.252-1.955-2.65-1.184-3.331.56-3.864.323-.215-.093-.196-.193-.14-.317.078-.174.28-.336 1.22-1.351.82-.922.963-1.01 1.156-.922.236.106.087 1.009.728 1.295l5.471 2.453c.43.188 1.196.48 1.697.449.336-.006.47-.305.663-.217.212.093.056.336-.433 1.425-.535 1.196-.79 1.314-.962 1.233-.237-.106-.08-.392-.087-1.009-.012-.548-.252-1.04-1.622-1.65-1.174-.53-1.352-.48-1.993.953m12.439 3.593c-.208 1.32-1.093 1.962-2.734 1.706-1.018-.162-1.189-.286-1.13-.654l.539-3.425c.047-.299.227-.392 1.152-.242 1.597.249 2.4 1.158 2.173 2.615m1.61.019c.218-1.389-.72-2.671-2.709-2.99-.67-.105-1.588-.155-2.65-.323-.95-.15-1.628-.349-2.067-.417-.302-.05-.424-.019-.461.211-.037.23.34.243.7.368.45.168.58.236.511.672l-1.258 7.984c-.087.554-.523.603-.946.585-.424-.019-.848-.037-.894.262-.025.162.2.249.243.255.604.093 1.174.087 2.282.262.972.155 1.42.317 2.021.417.37.056.47.025.501-.162.035-.23-.209-.336-.915-.523-.48-.125-.651-.386-.585-.804l.504-3.188c.08-.51.296-.666.828-.585.554.087.953.41 1.17.99l1.61 4.378c.116.33.218.417.38.442.443.068 1.635.162 2.142.243.234.037.362-.013.38-.156.035-.205-.121-.28-.392-.367-.514-.2-.884-.399-1.17-1.134l-1.352-3.462c-.15-.405-.252-.51-.23-.654.059-.368 1.993.006 2.357-2.304m5.595 2.871c-.38-3.189 1.136-5.113 3.276-5.368 2.092-.249 3.97 1.27 4.35 4.459.376 3.138-.717 5.063-3.32 5.368-2.419.292-3.932-1.32-4.306-4.459m-2.046.243c.374 3.138 3.077 5.224 6.424 4.826 3.394-.405 5.577-3.077 5.203-6.215-.38-3.183-3.123-5.22-6.38-4.826-3.487.416-5.626 3.026-5.247 6.215m15.578-7.1c-.212-.523-.072-.803.732-1.127 1.65-.666 3.117-.349 3.702 1.108.641 1.588-.137 2.983-1.526 3.544-.978.393-1.37.299-1.51-.05m-.025 4.583c.2.499-.143.71-.517.91-.352.193-.75.33-.629.628.072.175.206.2.445.106.477-.193 1.18-.579 1.919-.878.74-.292 1.295-.416 2.015-.71.258-.1.298-.192.22-.386-.062-.155-.227-.186-.95.025-.516.156-.731.069-.92-.41l-1.2-2.978c.605-.068 1.13-.074 2.5-.628 1.586-.636 2.548-2.516 1.76-4.465-.785-1.956-2.672-2.005-4.238-1.377-1.261.505-1.921.873-2.961 1.296-.871.348-1.6.541-1.993.697-.283.112-.389.281-.34.412.073.174.154.192.36.136 1.02-.287 1.313-.38 1.618.38l2.911 7.242zm9.048-8.662c-1.93-2.56-1.588-4.988.134-6.284 1.682-1.27 4.073-.902 6.003 1.664 1.9 2.528 1.925 4.739-.17 6.314-1.947 1.463-4.064.835-5.967-1.694m-1.647 1.24c1.903 2.528 5.284 2.97 7.977.94 2.734-2.056 3.28-5.455 1.377-7.983-1.93-2.566-5.322-2.94-7.94-.966-2.806 2.111-3.344 5.45-1.414 8.008m20.361-12.74c.136.162.09.336-.085.554-.865 1.108-1.793 2.136-3.166 3.885-1.071 1.364-1.762 2.398-2.009 2.716-.13.161-.23.174-.358.074-.22-.174.106-.628.443-1.17.183-.274.274-.766-.277-1.203l-6.025-4.726c-.517-.404-.648-.236-1.507.629-.184.156-.246.2-.393.081-.13-.1-.143-.23.131-.585.377-.474.912-1.01 1.389-1.613.722-.922 1.099-1.55 1.286-1.793.143-.181.258-.213.405-.1.164.13 0 .417-.237.797-.309.504-.41.903.012 1.233l6.321 4.963c.296.23.514.25 1.628-1.164 1.966-2.51.57-3.843.816-4.153.088-.113.168-.138.277-.05.094.074.194.211.35.392m-.966-7.648c.211.1.408.007.607-.448l.722-1.625c.278-.623.408-.972.278-1.49-.103-.454-.72-.858-.645-1.033.078-.168.184-.174.417-.069.215.094.486.293 1.224.648.762.362 1.308.579 1.585.704.149.069.186.156.118.305-.094.218-.539-.106-1.352-.006-.43.037-.905.592-1.155 1.152l-.74 1.67c-.181.404-.119.61.158.734l3.126 1.389c.514.23.962-.032 1.828-1.98.542-1.221.616-2.136.277-2.698-.445-.734-.993-1.108-.9-1.32.065-.15.171-.156.299-.1.171.076 1.071.704 1.557 1.053.37.268.617.399.523.617-.218.492-.953 1.905-1.884 4.004-.819 1.844-1.38 3.338-1.644 3.936-.124.274-.236.355-.408.28-.32-.143-.087-.554.06-.996.174-.567.164-.953-.52-1.258l-6.421-2.853c-1.028-.46-1.305-.348-1.535.113-.23.46-.411.635-.56.566-.153-.062-.228-.174-.116-.43.268-.603.751-1.463 1.56-3.282.826-1.862 1.293-3.144 1.732-4.128.227-.51.333-.517.632-.38l1.563.69c.212.095.301.188.255.294-.143.318-.781-.087-1.417.243-.687.336-1.295 1.014-1.962 2.51-.713 1.606-.516 1.743-.133 1.918M3.484 47.072a1.046 1.046 0 1 1-2.092 0 1.046 1.046 0 0 1 2.092 0m96.654 0a1.05 1.05 0 1 1-2.1-.002 1.05 1.05 0 0 1 2.1.002m-49.566 6.47c6.084-.897 9.668-3.914 9.668-3.914-2.923 15.324-.237 23.955-.237 23.955-.613-13.252 2.64-24.755 2.64-24.755 4.388 5.893 14.29 5.184 14.29 5.184S65.52 52.928 62.927 43.827c-5.044 7.875-12.355 9.715-12.355 9.715"/></svg>